<?xml version="1.0" encoding="UTF-8" standalone="no"?>
<!DOCTYPE svg PUBLIC "-//W3C//DTD SVG 1.1//EN"
 "http://www.w3.org/Graphics/SVG/1.1/DTD/svg11.dtd">
<!-- Generated by graphviz version 2.46.1 (20210213.1702)
 -->
<!-- Pages: 1 -->
<svg width="1170pt" height="548pt"
 viewBox="0.00 0.00 1170.27 548.00" xmlns="http://www.w3.org/2000/svg" xmlns:xlink="http://www.w3.org/1999/xlink">
<g id="graph0" class="graph" transform="scale(1 1) rotate(0) translate(4 544)">
<polygon fill="white" stroke="transparent" points="-4,4 -4,-544 1166.27,-544 1166.27,4 -4,4"/>
<!-- [root] aws_instance.server1 (expand) -->
<g id="node1" class="node">
<title>[root] aws_instance.server1 (expand)</title>
<polygon fill="none" stroke="black" points="724.5,-324 592.5,-324 592.5,-288 724.5,-288 724.5,-324"/>
<text text-anchor="middle" x="658.5" y="-302.3" font-family="Times,serif" font-size="14.00">aws_instance.server1</text>
</g>
<!-- [root] aws_key_pair.key&#45;class1 (expand) -->
<g id="node3" class="node">
<title>[root] aws_key_pair.key&#45;class1 (expand)</title>
<polygon fill="none" stroke="black" points="985.5,-180 833.5,-180 833.5,-144 985.5,-144 985.5,-180"/>
<text text-anchor="middle" x="909.5" y="-158.3" font-family="Times,serif" font-size="14.00">aws_key_pair.key&#45;class1</text>
</g>
<!-- [root] aws_instance.server1 (expand)&#45;&gt;[root] aws_key_pair.key&#45;class1 (expand) -->
<g id="edge1" class="edge">
<title>[root] aws_instance.server1 (expand)&#45;&gt;[root] aws_key_pair.key&#45;class1 (expand)</title>
<path fill="none" stroke="black" d="M724.67,-302.8C803.29,-298.62 927.52,-286.59 956.5,-252 972.95,-232.37 955.16,-206.05 936.95,-187.13"/>
<polygon fill="black" stroke="black" points="939.32,-184.56 929.75,-180.02 934.4,-189.54 939.32,-184.56"/>
</g>
<!-- [root] aws_security_group.sg1 (expand) -->
<g id="node7" class="node">
<title>[root] aws_security_group.sg1 (expand)</title>
<polygon fill="none" stroke="black" points="815.5,-252 667.5,-252 667.5,-216 815.5,-216 815.5,-252"/>
<text text-anchor="middle" x="741.5" y="-230.3" font-family="Times,serif" font-size="14.00">aws_security_group.sg1</text>
</g>
<!-- [root] aws_instance.server1 (expand)&#45;&gt;[root] aws_security_group.sg1 (expand) -->
<g id="edge2" class="edge">
<title>[root] aws_instance.server1 (expand)&#45;&gt;[root] aws_security_group.sg1 (expand)</title>
<path fill="none" stroke="black" d="M679.02,-287.7C689.37,-278.97 702.09,-268.24 713.34,-258.75"/>
<polygon fill="black" stroke="black" points="715.83,-261.23 721.22,-252.1 711.32,-255.88 715.83,-261.23"/>
</g>
<!-- [root] aws_security_group.sg2 (expand) -->
<g id="node8" class="node">
<title>[root] aws_security_group.sg2 (expand)</title>
<polygon fill="none" stroke="black" points="649.5,-252 501.5,-252 501.5,-216 649.5,-216 649.5,-252"/>
<text text-anchor="middle" x="575.5" y="-230.3" font-family="Times,serif" font-size="14.00">aws_security_group.sg2</text>
</g>
<!-- [root] aws_instance.server1 (expand)&#45;&gt;[root] aws_security_group.sg2 (expand) -->
<g id="edge3" class="edge">
<title>[root] aws_instance.server1 (expand)&#45;&gt;[root] aws_security_group.sg2 (expand)</title>
<path fill="none" stroke="black" d="M637.98,-287.7C627.63,-278.97 614.91,-268.24 603.66,-258.75"/>
<polygon fill="black" stroke="black" points="605.68,-255.88 595.78,-252.1 601.17,-261.23 605.68,-255.88"/>
</g>
<!-- [root] aws_subnet.main1 (expand) -->
<g id="node9" class="node">
<title>[root] aws_subnet.main1 (expand)</title>
<polygon fill="none" stroke="black" points="180.5,-252 62.5,-252 62.5,-216 180.5,-216 180.5,-252"/>
<text text-anchor="middle" x="121.5" y="-230.3" font-family="Times,serif" font-size="14.00">aws_subnet.main1</text>
</g>
<!-- [root] aws_instance.server1 (expand)&#45;&gt;[root] aws_subnet.main1 (expand) -->
<g id="edge4" class="edge">
<title>[root] aws_instance.server1 (expand)&#45;&gt;[root] aws_subnet.main1 (expand)</title>
<path fill="none" stroke="black" d="M592.47,-300.31C503.36,-293.37 339.59,-278.44 190.96,-252.13"/>
<polygon fill="black" stroke="black" points="191.2,-248.62 180.74,-250.3 189.96,-255.51 191.2,-248.62"/>
</g>
<!-- [root] var.ami_id -->
<g id="node13" class="node">
<title>[root] var.ami_id</title>
<polygon fill="none" stroke="black" points="477,-252 408,-252 408,-216 483,-216 483,-246 477,-252"/>
<polyline fill="none" stroke="black" points="477,-252 477,-246 "/>
<polyline fill="none" stroke="black" points="483,-246 477,-246 "/>
<text text-anchor="middle" x="445.5" y="-230.3" font-family="Times,serif" font-size="14.00">var.ami_id</text>
</g>
<!-- [root] aws_instance.server1 (expand)&#45;&gt;[root] var.ami_id -->
<g id="edge5" class="edge">
<title>[root] aws_instance.server1 (expand)&#45;&gt;[root] var.ami_id</title>
<path fill="none" stroke="black" d="M603.37,-287.98C573.26,-278.54 535.12,-266.38 492.83,-252.05"/>
<polygon fill="black" stroke="black" points="493.76,-248.67 483.17,-248.77 491.51,-255.3 493.76,-248.67"/>
</g>
<!-- [root] var.tipo_instancia -->
<g id="node17" class="node">
<title>[root] var.tipo_instancia</title>
<polygon fill="none" stroke="black" points="941,-252 834,-252 834,-216 947,-216 947,-246 941,-252"/>
<polyline fill="none" stroke="black" points="941,-252 941,-246 "/>
<polyline fill="none" stroke="black" points="947,-246 941,-246 "/>
<text text-anchor="middle" x="890.5" y="-230.3" font-family="Times,serif" font-size="14.00">var.tipo_instancia</text>
</g>
<!-- [root] aws_instance.server1 (expand)&#45;&gt;[root] var.tipo_instancia -->
<g id="edge6" class="edge">
<title>[root] aws_instance.server1 (expand)&#45;&gt;[root] var.tipo_instancia</title>
<path fill="none" stroke="black" d="M714.96,-287.97C747.8,-278.06 789.37,-265.51 823.81,-255.12"/>
<polygon fill="black" stroke="black" points="825.23,-258.35 833.79,-252.11 823.21,-251.65 825.23,-258.35"/>
</g>
<!-- [root] aws_internet_gateway.gwmain1 (expand) -->
<g id="node2" class="node">
<title>[root] aws_internet_gateway.gwmain1 (expand)</title>
<polygon fill="none" stroke="black" points="390,-252 199,-252 199,-216 390,-216 390,-252"/>
<text text-anchor="middle" x="294.5" y="-230.3" font-family="Times,serif" font-size="14.00">aws_internet_gateway.gwmain1</text>
</g>
<!-- [root] aws_vpc.main1 (expand) -->
<g id="node10" class="node">
<title>[root] aws_vpc.main1 (expand)</title>
<polygon fill="none" stroke="black" points="626.5,-180 524.5,-180 524.5,-144 626.5,-144 626.5,-180"/>
<text text-anchor="middle" x="575.5" y="-158.3" font-family="Times,serif" font-size="14.00">aws_vpc.main1</text>
</g>
<!-- [root] aws_internet_gateway.gwmain1 (expand)&#45;&gt;[root] aws_vpc.main1 (expand) -->
<g id="edge7" class="edge">
<title>[root] aws_internet_gateway.gwmain1 (expand)&#45;&gt;[root] aws_vpc.main1 (expand)</title>
<path fill="none" stroke="black" d="M362.88,-215.97C409.1,-204.45 469.6,-189.38 514.24,-178.26"/>
<polygon fill="black" stroke="black" points="515.22,-181.62 524.08,-175.81 513.53,-174.83 515.22,-181.62"/>
</g>
<!-- [root] provider[&quot;registry.terraform.io/hashicorp/aws&quot;] -->
<g id="node12" class="node">
<title>[root] provider[&quot;registry.terraform.io/hashicorp/aws&quot;]</title>
<polygon fill="none" stroke="black" points="909.5,-108 656.96,-90 909.5,-72 1162.04,-90 909.5,-108"/>
<text text-anchor="middle" x="909.5" y="-86.3" font-family="Times,serif" font-size="14.00">provider[&quot;registry.terraform.io/hashicorp/aws&quot;]</text>
</g>
<!-- [root] aws_key_pair.key&#45;class1 (expand)&#45;&gt;[root] provider[&quot;registry.terraform.io/hashicorp/aws&quot;] -->
<g id="edge8" class="edge">
<title>[root] aws_key_pair.key&#45;class1 (expand)&#45;&gt;[root] provider[&quot;registry.terraform.io/hashicorp/aws&quot;]</title>
<path fill="none" stroke="black" d="M909.5,-143.7C909.5,-135.98 909.5,-126.71 909.5,-118.11"/>
<polygon fill="black" stroke="black" points="913,-118.1 909.5,-108.1 906,-118.1 913,-118.1"/>
</g>
<!-- [root] aws_key_pair.key&#45;class2 (expand) -->
<g id="node4" class="node">
<title>[root] aws_key_pair.key&#45;class2 (expand)</title>
<polygon fill="none" stroke="black" points="722.5,-396 570.5,-396 570.5,-360 722.5,-360 722.5,-396"/>
<text text-anchor="middle" x="646.5" y="-374.3" font-family="Times,serif" font-size="14.00">aws_key_pair.key&#45;class2</text>
</g>
<!-- [root] aws_key_pair.key&#45;class2 (expand)&#45;&gt;[root] provider[&quot;registry.terraform.io/hashicorp/aws&quot;] -->
<g id="edge9" class="edge">
<title>[root] aws_key_pair.key&#45;class2 (expand)&#45;&gt;[root] provider[&quot;registry.terraform.io/hashicorp/aws&quot;]</title>
<path fill="none" stroke="black" d="M722.51,-367.55C796.68,-354.36 907.69,-323.39 973.5,-252 1006.64,-216.05 1018.23,-186.76 994.5,-144 986.39,-129.39 972.4,-118.29 958.08,-110.11"/>
<polygon fill="black" stroke="black" points="959.65,-106.98 949.18,-105.39 956.38,-113.16 959.65,-106.98"/>
</g>
<!-- [root] aws_route_table.rtmain1 (expand) -->
<g id="node5" class="node">
<title>[root] aws_route_table.rtmain1 (expand)</title>
<polygon fill="none" stroke="black" points="370.5,-324 218.5,-324 218.5,-288 370.5,-288 370.5,-324"/>
<text text-anchor="middle" x="294.5" y="-302.3" font-family="Times,serif" font-size="14.00">aws_route_table.rtmain1</text>
</g>
<!-- [root] aws_route_table.rtmain1 (expand)&#45;&gt;[root] aws_internet_gateway.gwmain1 (expand) -->
<g id="edge10" class="edge">
<title>[root] aws_route_table.rtmain1 (expand)&#45;&gt;[root] aws_internet_gateway.gwmain1 (expand)</title>
<path fill="none" stroke="black" d="M294.5,-287.7C294.5,-279.98 294.5,-270.71 294.5,-262.11"/>
<polygon fill="black" stroke="black" points="298,-262.1 294.5,-252.1 291,-262.1 298,-262.1"/>
</g>
<!-- [root] aws_route_table_association.table_subnet1 (expand) -->
<g id="node6" class="node">
<title>[root] aws_route_table_association.table_subnet1 (expand)</title>
<polygon fill="none" stroke="black" points="420,-396 169,-396 169,-360 420,-360 420,-396"/>
<text text-anchor="middle" x="294.5" y="-374.3" font-family="Times,serif" font-size="14.00">aws_route_table_association.table_subnet1</text>
</g>
<!-- [root] aws_route_table_association.table_subnet1 (expand)&#45;&gt;[root] aws_route_table.rtmain1 (expand) -->
<g id="edge11" class="edge">
<title>[root] aws_route_table_association.table_subnet1 (expand)&#45;&gt;[root] aws_route_table.rtmain1 (expand)</title>
<path fill="none" stroke="black" d="M294.5,-359.7C294.5,-351.98 294.5,-342.71 294.5,-334.11"/>
<polygon fill="black" stroke="black" points="298,-334.1 294.5,-324.1 291,-334.1 298,-334.1"/>
</g>
<!-- [root] aws_route_table_association.table_subnet1 (expand)&#45;&gt;[root] aws_subnet.main1 (expand) -->
<g id="edge12" class="edge">
<title>[root] aws_route_table_association.table_subnet1 (expand)&#45;&gt;[root] aws_subnet.main1 (expand)</title>
<path fill="none" stroke="black" d="M263.44,-360C246.81,-350.32 226.34,-337.46 209.5,-324 184.99,-304.41 160.14,-278.61 143.13,-259.84"/>
<polygon fill="black" stroke="black" points="145.62,-257.37 136.34,-252.26 140.4,-262.04 145.62,-257.37"/>
</g>
<!-- [root] aws_security_group.sg1 (expand)&#45;&gt;[root] aws_vpc.main1 (expand) -->
<g id="edge13" class="edge">
<title>[root] aws_security_group.sg1 (expand)&#45;&gt;[root] aws_vpc.main1 (expand)</title>
<path fill="none" stroke="black" d="M700.89,-215.88C678.1,-206.26 649.47,-194.19 625.33,-184.01"/>
<polygon fill="black" stroke="black" points="626.55,-180.73 615.98,-180.07 623.83,-187.18 626.55,-180.73"/>
</g>
<!-- [root] aws_security_group.sg2 (expand)&#45;&gt;[root] aws_vpc.main1 (expand) -->
<g id="edge14" class="edge">
<title>[root] aws_security_group.sg2 (expand)&#45;&gt;[root] aws_vpc.main1 (expand)</title>
<path fill="none" stroke="black" d="M575.5,-215.7C575.5,-207.98 575.5,-198.71 575.5,-190.11"/>
<polygon fill="black" stroke="black" points="579,-190.1 575.5,-180.1 572,-190.1 579,-190.1"/>
</g>
<!-- [root] aws_subnet.main1 (expand)&#45;&gt;[root] aws_vpc.main1 (expand) -->
<g id="edge15" class="edge">
<title>[root] aws_subnet.main1 (expand)&#45;&gt;[root] aws_vpc.main1 (expand)</title>
<path fill="none" stroke="black" d="M180.75,-217.78C183.7,-217.15 186.63,-216.55 189.5,-216 303.2,-194.05 437.46,-177.75 513.92,-169.37"/>
<polygon fill="black" stroke="black" points="514.76,-172.8 524.32,-168.24 514,-165.84 514.76,-172.8"/>
</g>
<!-- [root] var.subnet1_cidr -->
<g id="node15" class="node">
<title>[root] var.subnet1_cidr</title>
<polygon fill="none" stroke="black" points="101,-180 0,-180 0,-144 107,-144 107,-174 101,-180"/>
<polyline fill="none" stroke="black" points="101,-180 101,-174 "/>
<polyline fill="none" stroke="black" points="107,-174 101,-174 "/>
<text text-anchor="middle" x="53.5" y="-158.3" font-family="Times,serif" font-size="14.00">var.subnet1_cidr</text>
</g>
<!-- [root] aws_subnet.main1 (expand)&#45;&gt;[root] var.subnet1_cidr -->
<g id="edge16" class="edge">
<title>[root] aws_subnet.main1 (expand)&#45;&gt;[root] var.subnet1_cidr</title>
<path fill="none" stroke="black" d="M104.69,-215.7C96.37,-207.14 86.19,-196.66 77.11,-187.3"/>
<polygon fill="black" stroke="black" points="79.59,-184.84 70.12,-180.1 74.57,-189.72 79.59,-184.84"/>
</g>
<!-- [root] var.subnet1_zone_1a -->
<g id="node16" class="node">
<title>[root] var.subnet1_zone_1a</title>
<polygon fill="none" stroke="black" points="250,-180 125,-180 125,-144 256,-144 256,-174 250,-180"/>
<polyline fill="none" stroke="black" points="250,-180 250,-174 "/>
<polyline fill="none" stroke="black" points="256,-174 250,-174 "/>
<text text-anchor="middle" x="190.5" y="-158.3" font-family="Times,serif" font-size="14.00">var.subnet1_zone_1a</text>
</g>
<!-- [root] aws_subnet.main1 (expand)&#45;&gt;[root] var.subnet1_zone_1a -->
<g id="edge17" class="edge">
<title>[root] aws_subnet.main1 (expand)&#45;&gt;[root] var.subnet1_zone_1a</title>
<path fill="none" stroke="black" d="M138.56,-215.7C147,-207.14 157.32,-196.66 166.54,-187.3"/>
<polygon fill="black" stroke="black" points="169.11,-189.68 173.64,-180.1 164.13,-184.77 169.11,-189.68"/>
</g>
<!-- [root] aws_vpc.main1 (expand)&#45;&gt;[root] provider[&quot;registry.terraform.io/hashicorp/aws&quot;] -->
<g id="edge18" class="edge">
<title>[root] aws_vpc.main1 (expand)&#45;&gt;[root] provider[&quot;registry.terraform.io/hashicorp/aws&quot;]</title>
<path fill="none" stroke="black" d="M626.59,-150.29C683.31,-138.4 775.24,-119.14 838.83,-105.81"/>
<polygon fill="black" stroke="black" points="839.72,-109.2 848.79,-103.72 838.28,-102.35 839.72,-109.2"/>
</g>
<!-- [root] var.vpc_cidr -->
<g id="node18" class="node">
<title>[root] var.vpc_cidr</title>
<polygon fill="none" stroke="black" points="611.5,-108 533.5,-108 533.5,-72 617.5,-72 617.5,-102 611.5,-108"/>
<polyline fill="none" stroke="black" points="611.5,-108 611.5,-102 "/>
<polyline fill="none" stroke="black" points="617.5,-102 611.5,-102 "/>
<text text-anchor="middle" x="575.5" y="-86.3" font-family="Times,serif" font-size="14.00">var.vpc_cidr</text>
</g>
<!-- [root] aws_vpc.main1 (expand)&#45;&gt;[root] var.vpc_cidr -->
<g id="edge19" class="edge">
<title>[root] aws_vpc.main1 (expand)&#45;&gt;[root] var.vpc_cidr</title>
<path fill="none" stroke="black" d="M575.5,-143.7C575.5,-135.98 575.5,-126.71 575.5,-118.11"/>
<polygon fill="black" stroke="black" points="579,-118.1 575.5,-108.1 572,-118.1 579,-118.1"/>
</g>
<!-- [root] output.public_dns -->
<g id="node11" class="node">
<title>[root] output.public_dns</title>
<polygon fill="none" stroke="black" points="546.5,-396 438.5,-396 438.5,-360 552.5,-360 552.5,-390 546.5,-396"/>
<polyline fill="none" stroke="black" points="546.5,-396 546.5,-390 "/>
<polyline fill="none" stroke="black" points="552.5,-390 546.5,-390 "/>
<text text-anchor="middle" x="495.5" y="-374.3" font-family="Times,serif" font-size="14.00">output.public_dns</text>
</g>
<!-- [root] output.public_dns&#45;&gt;[root] aws_instance.server1 (expand) -->
<g id="edge23" class="edge">
<title>[root] output.public_dns&#45;&gt;[root] aws_instance.server1 (expand)</title>
<path fill="none" stroke="black" d="M535.37,-359.88C557.66,-350.31 585.62,-338.3 609.26,-328.15"/>
<polygon fill="black" stroke="black" points="610.95,-331.23 618.76,-324.07 608.19,-324.8 610.95,-331.23"/>
</g>
<!-- [root] var.region -->
<g id="node14" class="node">
<title>[root] var.region</title>
<polygon fill="none" stroke="black" points="939,-36 874,-36 874,0 945,0 945,-30 939,-36"/>
<polyline fill="none" stroke="black" points="939,-36 939,-30 "/>
<polyline fill="none" stroke="black" points="945,-30 939,-30 "/>
<text text-anchor="middle" x="909.5" y="-14.3" font-family="Times,serif" font-size="14.00">var.region</text>
</g>
<!-- [root] provider[&quot;registry.terraform.io/hashicorp/aws&quot;]&#45;&gt;[root] var.region -->
<g id="edge27" class="edge">
<title>[root] provider[&quot;registry.terraform.io/hashicorp/aws&quot;]&#45;&gt;[root] var.region</title>
<path fill="none" stroke="black" d="M909.5,-71.7C909.5,-63.98 909.5,-54.71 909.5,-46.11"/>
<polygon fill="black" stroke="black" points="913,-46.1 909.5,-36.1 906,-46.1 913,-46.1"/>
</g>
<!-- [root] meta.count&#45;boundary (EachMode fixup) -->
<g id="node19" class="node">
<title>[root] meta.count&#45;boundary (EachMode fixup)</title>
<ellipse fill="none" stroke="black" cx="311.5" cy="-450" rx="176.27" ry="18"/>
<text text-anchor="middle" x="311.5" y="-446.3" font-family="Times,serif" font-size="14.00">[root] meta.count&#45;boundary (EachMode fixup)</text>
</g>
<!-- [root] meta.count&#45;boundary (EachMode fixup)&#45;&gt;[root] aws_key_pair.key&#45;class2 (expand) -->
<g id="edge20" class="edge">
<title>[root] meta.count&#45;boundary (EachMode fixup)&#45;&gt;[root] aws_key_pair.key&#45;class2 (expand)</title>
<path fill="none" stroke="black" d="M385.02,-433.64C436.69,-422.84 506.01,-408.36 560.3,-397.01"/>
<polygon fill="black" stroke="black" points="561.18,-400.4 570.25,-394.93 559.74,-393.55 561.18,-400.4"/>
</g>
<!-- [root] meta.count&#45;boundary (EachMode fixup)&#45;&gt;[root] aws_route_table_association.table_subnet1 (expand) -->
<g id="edge21" class="edge">
<title>[root] meta.count&#45;boundary (EachMode fixup)&#45;&gt;[root] aws_route_table_association.table_subnet1 (expand)</title>
<path fill="none" stroke="black" d="M307.3,-431.7C305.4,-423.9 303.12,-414.51 301.02,-405.83"/>
<polygon fill="black" stroke="black" points="304.42,-405 298.65,-396.1 297.61,-406.65 304.42,-405"/>
</g>
<!-- [root] meta.count&#45;boundary (EachMode fixup)&#45;&gt;[root] output.public_dns -->
<g id="edge22" class="edge">
<title>[root] meta.count&#45;boundary (EachMode fixup)&#45;&gt;[root] output.public_dns</title>
<path fill="none" stroke="black" d="M355.11,-432.41C380.87,-422.61 413.71,-410.12 441.15,-399.68"/>
<polygon fill="black" stroke="black" points="442.51,-402.91 450.61,-396.08 440.02,-396.36 442.51,-402.91"/>
</g>
<!-- [root] provider[&quot;registry.terraform.io/hashicorp/aws&quot;] (close) -->
<g id="node20" class="node">
<title>[root] provider[&quot;registry.terraform.io/hashicorp/aws&quot;] (close)</title>
<ellipse fill="none" stroke="black" cx="733.5" cy="-450" rx="227.46" ry="18"/>
<text text-anchor="middle" x="733.5" y="-446.3" font-family="Times,serif" font-size="14.00">[root] provider[&quot;registry.terraform.io/hashicorp/aws&quot;] (close)</text>
</g>
<!-- [root] provider[&quot;registry.terraform.io/hashicorp/aws&quot;] (close)&#45;&gt;[root] aws_instance.server1 (expand) -->
<g id="edge24" class="edge">
<title>[root] provider[&quot;registry.terraform.io/hashicorp/aws&quot;] (close)&#45;&gt;[root] aws_instance.server1 (expand)</title>
<path fill="none" stroke="black" d="M737.41,-431.82C740.75,-413.03 743.34,-382.59 731.5,-360 725.13,-347.84 714.56,-337.79 703.42,-329.84"/>
<polygon fill="black" stroke="black" points="705.12,-326.76 694.85,-324.16 701.25,-332.6 705.12,-326.76"/>
</g>
<!-- [root] provider[&quot;registry.terraform.io/hashicorp/aws&quot;] (close)&#45;&gt;[root] aws_key_pair.key&#45;class2 (expand) -->
<g id="edge25" class="edge">
<title>[root] provider[&quot;registry.terraform.io/hashicorp/aws&quot;] (close)&#45;&gt;[root] aws_key_pair.key&#45;class2 (expand)</title>
<path fill="none" stroke="black" d="M712.44,-432.05C701.41,-423.18 687.72,-412.17 675.69,-402.48"/>
<polygon fill="black" stroke="black" points="677.65,-399.57 667.67,-396.03 673.26,-405.03 677.65,-399.57"/>
</g>
<!-- [root] provider[&quot;registry.terraform.io/hashicorp/aws&quot;] (close)&#45;&gt;[root] aws_route_table_association.table_subnet1 (expand) -->
<g id="edge26" class="edge">
<title>[root] provider[&quot;registry.terraform.io/hashicorp/aws&quot;] (close)&#45;&gt;[root] aws_route_table_association.table_subnet1 (expand)</title>
<path fill="none" stroke="black" d="M637.43,-433.68C570.93,-423.08 482.03,-408.9 411.41,-397.64"/>
<polygon fill="black" stroke="black" points="411.56,-394.12 401.13,-396 410.45,-401.03 411.56,-394.12"/>
</g>
<!-- [root] root -->
<g id="node21" class="node">
<title>[root] root</title>
<ellipse fill="none" stroke="black" cx="522.5" cy="-522" rx="47.39" ry="18"/>
<text text-anchor="middle" x="522.5" y="-518.3" font-family="Times,serif" font-size="14.00">[root] root</text>
</g>
<!-- [root] root&#45;&gt;[root] meta.count&#45;boundary (EachMode fixup) -->
<g id="edge28" class="edge">
<title>[root] root&#45;&gt;[root] meta.count&#45;boundary (EachMode fixup)</title>
<path fill="none" stroke="black" d="M487.66,-509.44C455.85,-498.89 408.19,-483.08 370.46,-470.56"/>
<polygon fill="black" stroke="black" points="371.2,-467.12 360.6,-467.29 368.99,-473.76 371.2,-467.12"/>
</g>
<!-- [root] root&#45;&gt;[root] provider[&quot;registry.terraform.io/hashicorp/aws&quot;] (close) -->
<g id="edge29" class="edge">
<title>[root] root&#45;&gt;[root] provider[&quot;registry.terraform.io/hashicorp/aws&quot;] (close)</title>
<path fill="none" stroke="black" d="M557.34,-509.44C588.82,-499 635.84,-483.4 673.39,-470.94"/>
<polygon fill="black" stroke="black" points="674.82,-474.16 683.21,-467.68 672.61,-467.51 674.82,-474.16"/>
</g>
</g>
</svg>
